<svg xmlns="http://www.w3.org/2000/svg" version="1.1" xmlns:xlink="http://www.w3.org/1999/xlink" xmlns:svgjs="http://svgjs.dev/svgjs" width="1000" height="1000" viewBox="0 0 1000 1000"><rect width="1000" height="1000" fill="#444444"></rect><g transform="matrix(0.7,0,0,0.7,150,106.25)"><svg viewBox="0 0 320 360" data-background-color="#444444" preserveAspectRatio="xMidYMid meet" height="1125" width="1000" xmlns="http://www.w3.org/2000/svg" xmlns:xlink="http://www.w3.org/1999/xlink"><g id="tight-bounds" transform="matrix(1,0,0,1,0,0)"><svg viewBox="0 0 320 360" height="360" width="320"><g><svg></svg></g><g><svg viewBox="0 0 320 360" height="360" width="320"><g><path xmlns="http://www.w3.org/2000/svg" d="M219.58 41.008c0.707 0 6.365 2.829 9.547 3.89-1.061 0.354-3.536-0.707-6.365-1.768 0.707 0 2.122 0.354 3.536 1.06-0.707-0.707-6.011-2.475-6.718-3.182M166.895 30.047c1.061-0.354 13.436 1.414 19.094 1.768 0.354-0.354-0.707-0.354-2.122-0.707 1.768-0.354 5.304 0.707 7.779 1.06-7.425 0.354-15.558-1.768-22.629-1.06-2.475 0-0.707-0.707-2.122-1.061M156.641 30.047c6.365 0 11.315 0 2.121 0.707-1.061-0.354-2.475-0.354-2.121-0.707M256.707 59.395c0.707 0 3.536 3.182 4.95 4.243-0.354 0.354-3.182-2.475-4.596-3.536 0.354 0.354 0 0-0.354-0.707M249.635 54.798c-2.829-2.475-3.889-2.475-4.243-3.889 2.475 1.414 4.243 2.829 4.243 3.889M204.022 32.522c0.354-0.354 1.061 0.354 2.829 0.707-2.122-0.354-1.768 0-1.061 0.707-2.475-0.354-3.182-0.707-2.475-1.414 1.414 0.707 1.768 0.354 0.707 0M103.602 36.765c0-0.354 1.414-1.061 2.475-1.414-1.061 0.707-0.707 1.061 1.061 0.353 0 0.354-2.122 1.061-3.536 1.768 0.707-0.354 1.414-1.414 0-0.707M211.094 28.986c-1.061 0.354-4.95-1.768-8.84-2.475-2.122-0.707 8.486 1.768 8.84 2.475M2.475 203.66c2.122 8.84 0.707 8.486 0 0M2.829 150.621c0.354-1.414 0.707-5.304 1.06-4.95-1.061 8.486-2.829 12.376-3.182 18.74 1.061-5.657-0.354 3.182-0.707 5.304 0.354 2.829 0.354-1.768 1.061-1.06 0.707 1.061-1.414 15.912-0.707 7.779-0.707 7.425 0 15.558 1.414 17.679-1.768 11.315 7.072 36.773 8.84 42.077 0.354 0.354 0-1.768 0.707-0.353 0.707 4.597 3.889 7.779 4.95 12.729 1.061 1.414 5.304 9.193 6.011 10.962 1.414 2.829 2.122 2.475 3.536 5.303 4.243 8.133 10.961 15.912 17.326 23.337 20.508 24.044 51.978 43.845 86.984 50.918 35.006 7.425 71.779 2.122 100.419-11.669 1.768-1.061 1.414-1.414 3.536-2.122 9.901-3.182 21.923-13.436 28.641-17.326 3.182-3.536 11.669-9.547 12.73-13.082 6.011-4.95 12.022-13.083 15.204-18.387 1.768-2.829 3.182-2.829 3.889-4.597-0.354 0 5.657-7.425 7.426-11.668-0.707 0-1.768 2.122-1.768 0 12.729-24.398 19.801-57.282 15.911-79.912 0.707 27.934-6.365 59.05-19.801 78.851-6.011 12.729-18.387 26.519-29.701 36.42-1.768 1.768-3.536 3.889-5.658 5.304-6.718 5.657-14.144 10.254-21.922 14.497-18.387 10.254-38.895 19.094-62.94 19.447 41.37-3.536 78.497-24.398 99.006-49.856-15.558 15.204-22.276 21.215-39.602 30.055-1.414 2.475-13.083 7.425-20.862 9.547 4.597-2.122 14.144-5.657 17.326-8.486-25.812 12.376-54.453 19.448-81.326 15.558 10.254 0 24.751 0.354 38.541-2.121 2.122-0.707 3.182-1.414 5.658-1.768 26.873-6.011 52.685-19.094 71.072-37.481-10.608 9.547-26.519 20.862-36.774 24.398 9.547-5.304 26.873-15.558 32.53-23.337-11.315 11.315-32.53 22.63-45.966 27.58-2.122 0.354 1.414-1.414-2.122 0-4.243 1.061-2.475 1.061-3.536 1.768-16.265 4.597-35.006 8.486-50.563 7.072-2.829-0.354-3.889-1.061-6.365-1.061-2.829-0.354-5.304-0.354-8.486-0.354-12.376-1.414-25.812-6.365-35.713-10.607-5.304-2.475-10.608-4.243-15.912-7.426-4.243-2.475-7.779-5.304-11.314-8.132-13.436-9.901-24.751-19.801-35.36-33.945-19.094-26.519-28.994-59.757-27.58-92.641 1.414-32.884 14.497-65.061 35.359-88.752-1.061 1.061 1.414-2.475 3.536-4.596 0 0.707-0.354 1.768 2.122-0.707 2.122-2.475-0.707-0.707 0.353-2.122 21.923-24.044 60.111-43.492 99.36-44.199 1.414-1.061 3.889-2.475 6.718-1.768 0 0.354-1.768 0.354-1.768 0.354 3.889-0.354 7.425-0.354 9.193 0.353 0.354-0.354-1.414-0.707 0-0.707 2.475 0.707 3.182 0 4.597 0.707-1.061 0-2.122 0-2.829 0.354 8.84 0 14.497 2.122 23.337 2.829-4.597-1.061-5.657-1.061-9.193-2.122 3.889 0.707 5.657 1.414 7.425 1.061-0.707 0-0.354-1.061 0.354-0.707 7.072 1.768 7.779 2.475 15.204 4.95 0.707-0.707-3.182-1.061-4.243-2.122 7.072 2.475 13.436 4.243 17.68 7.072-1.414-1.061-5.657-2.475-8.84-3.889-0.354 0.354 1.061 0.707 1.414 1.414-3.536-1.768-8.486-3.536-13.436-4.243 4.243 1.061 7.072 2.475 8.84 3.182-3.889-0.707-8.84-3.182-14.498-4.243 9.193 2.829 26.519 9.193 37.127 14.851-3.889-2.475-8.486-4.243-10.961-5.657 2.122 0.354 4.597 1.768 4.597 1.06 2.475 1.061 5.657 3.536 7.425 3.89-3.182-2.122-9.547-5.304-11.668-6.365 26.519 12.022 50.21 32.177 65.414 57.989 1.414 2.475 3.536 8.133 5.304 8.84-0.354-1.768-1.768-2.829-3.182-5.657 0.707 0 0.707-1.061 0-2.122-1.414-1.768 0 1.414-1.415-0.354-6.365-11.669-14.144-21.923-26.165-33.237 6.718 6.365 1.768 1.768 0.353-0.354 9.193 8.133 19.801 21.923 24.398 28.995-0.707-1.061-1.061-1.768-0.707-1.768 8.486 14.497 13.79 27.58 19.094 46.32 0.354 0.354 0-1.414 0.707-0.353 3.536 14.851 4.597 27.227 4.243 38.541 2.829-19.094-3.536-48.796-14.851-72.133-1.414-2.829-1.414-0.707-2.829-3.889 0-1.061-1.061-3.182-1.768-4.597-14.144-23.337-31.47-39.956-51.978-53.038 1.414 0.707 4.243 2.829 4.244 2.475-38.188-25.105-82.387-28.641-118.807-20.862-2.475 1.061-3.536 2.122-6.365 3.536 5.304-1.768 8.486-2.122 13.437-3.183 1.061-1.061-4.597 0.354-2.122-0.707 0.354 0.354 4.95-0.707 6.011-0.353 0 0.354-1.414 0.707-1.768 1.06 11.669-2.475 23.691-2.829 33.945-2.121-6.011 0.354-16.972-0.707-20.508 1.061 3.536-0.354 8.486-0.707 11.668-0.354-4.243 0-12.022 0.354-15.558 0.707-0.354-0.354 5.657-1.061 1.768-1.06-1.768 0.354-4.597 0.354-5.657 1.414-30.409 2.829-60.111 18.74-80.973 37.481-4.243 3.536-9.193 7.425-12.375 11.314-7.779 8.84-12.729 17.68-18.387 25.459 3.536-7.425 11.315-18.74 20.508-28.287 9.193-9.547 19.094-17.68 24.398-21.923 0 1.414 8.486-5.304 11.669-7.425-2.122 1.768 1.414-0.707 2.121-0.354 11.315-6.718 20.508-9.193 30.763-13.083-2.475 0.707-4.597 1.414-4.951 1.061 2.475-0.707 3.889-1.414 3.536-1.768-9.901 2.829-25.459 9.547-37.834 16.972 22.276-15.204 50.564-24.398 78.497-24.751 27.934-0.707 55.16 6.365 76.729 17.68 14.497 6.365 28.287 18.033 39.249 29.348 3.182 2.829 0.707-0.707 5.304 4.243-1.414-0.707-2.475-1.414-0.707 0.707 2.829 3.182-0.707-2.475 3.889 3.182-0.354 0-1.768-1.768-1.768-1.061 12.376 10.961 21.923 30.762 27.58 43.846-1.414-5.304-4.95-12.729-7.779-18.033 8.486 15.558 11.315 24.751 14.851 38.541 1.414 1.061-0.707-4.95 0.707-2.121 0.354 2.122 0.707 8.84 2.122 9.9-1.061-6.718-2.829-14.851-4.243-16.265 1.061 0.707-1.768-8.133-3.536-10.254-0.707-5.657-5.657-15.558-9.901-22.984-15.204-29.702-42.431-54.099-72.839-67.536 0-0.707-1.768-1.414-2.476-2.121-30.055-12.729-66.122-16.265-100.773-8.133-35.006 8.486-67.889 28.641-91.227 57.636 1.061-3.536 9.901-10.254 10.255-13.083-10.254 10.961-21.215 25.459-28.641 41.016-7.779 15.558-12.022 31.47-13.79 43.138" fill="#ffffff" fill-rule="nonzero" stroke="none" stroke-width="1" stroke-linecap="butt" stroke-linejoin="miter" stroke-miterlimit="10" stroke-dasharray="" stroke-dashoffset="0" font-family="none" font-weight="none" font-size="none" text-anchor="none" style="mix-blend-mode: normal" data-fill-palette-color="tertiary"></path></g><g transform="matrix(1,0,0,1,48,127.89203976160388)"><svg viewBox="0 0 224 104.21592047679222" height="104.21592047679222" width="224"><g><svg viewBox="0 0 224 104.21592047679222" height="104.21592047679222" width="224"><g><svg viewBox="0 0 224 104.21592047679222" height="104.21592047679222" width="224"><g><svg viewBox="0 0 224 104.21592047679222" height="104.21592047679222" width="224"><g id="textblocktransform"><svg viewBox="0 0 224 104.21592047679222" height="104.21592047679222" width="224" id="textblock"><g><svg viewBox="0 0 224 64.68057259713703" height="64.68057259713703" width="224"><g transform="matrix(1,0,0,1,0,0)"><svg width="224" viewBox="-0.25 -34.79999923706055 122.23999786376953 35.29999923706055" height="64.68057259713703" data-palette-color="#ffffff"><path d="M23.75-34.3L28.8-34.3 16.75-13.25 16.75 0 11.85 0 11.85-13.25-0.25-34.3 5.35-34.3 14.5-18.35 14.7-18.35 23.75-34.3ZM44.3-34.8Q49.95-34.8 53.17-32.3 56.4-29.8 56.4-25.2L56.4-25.2 56.4-24.6 51.5-24.6 51.5-25.35Q51.5-27.75 49.55-29.05 47.6-30.35 44.4-30.35L44.4-30.35Q40.85-30.35 38.87-29.18 36.9-28 36.9-25.8L36.9-25.8Q36.9-24.15 38.02-23.1 39.15-22.05 40.82-21.45 42.5-20.85 45.45-20.1L45.45-20.1Q49.25-19.1 51.6-18.15 53.95-17.2 55.62-15.3 57.3-13.4 57.3-10.25L57.3-10.25Q57.3-4.65 53.87-2.08 50.45 0.5 44.25 0.5L44.25 0.5Q38.05 0.5 34.62-2.13 31.2-4.75 31.2-9.75L31.2-9.75 31.25-10.75 36.15-10.75 36.1-9.7Q36.1-6.8 38.27-5.38 40.45-3.95 44.3-3.95L44.3-3.95Q48.05-3.95 50.22-5.33 52.4-6.7 52.4-9.1L52.4-9.1Q52.4-11 51.22-12.18 50.05-13.35 48.27-14 46.5-14.65 43.45-15.45L43.45-15.45Q39.7-16.45 37.45-17.35 35.2-18.25 33.6-20.13 32-22 32-25.05L32-25.05Q32-30 35.35-32.4 38.7-34.8 44.3-34.8L44.3-34.8ZM75.65-34.8Q81.3-34.8 84.52-32.3 87.75-29.8 87.75-25.2L87.75-25.2 87.75-24.6 82.85-24.6 82.85-25.35Q82.85-27.75 80.9-29.05 78.95-30.35 75.75-30.35L75.75-30.35Q72.2-30.35 70.22-29.18 68.25-28 68.25-25.8L68.25-25.8Q68.25-24.15 69.37-23.1 70.5-22.05 72.17-21.45 73.85-20.85 76.8-20.1L76.8-20.1Q80.6-19.1 82.95-18.15 85.3-17.2 86.97-15.3 88.65-13.4 88.65-10.25L88.65-10.25Q88.65-4.65 85.22-2.08 81.8 0.5 75.6 0.5L75.6 0.5Q69.4 0.5 65.97-2.13 62.55-4.75 62.55-9.75L62.55-9.75 62.6-10.75 67.5-10.75 67.45-9.7Q67.45-6.8 69.62-5.38 71.8-3.95 75.65-3.95L75.65-3.95Q79.4-3.95 81.57-5.33 83.75-6.7 83.75-9.1L83.75-9.1Q83.75-11 82.57-12.18 81.4-13.35 79.62-14 77.85-14.65 74.8-15.45L74.8-15.45Q71.05-16.45 68.8-17.35 66.55-18.25 64.95-20.13 63.35-22 63.35-25.05L63.35-25.05Q63.35-30 66.7-32.4 70.05-34.8 75.65-34.8L75.65-34.8ZM107.79-34.3Q112.09-34.3 115.29-32.43 118.49-30.55 120.24-27.08 121.99-23.6 121.99-18.9L121.99-18.9 121.99-15.4Q121.99-10.7 120.24-7.23 118.49-3.75 115.29-1.88 112.09 0 107.79 0L107.79 0 95.89 0 95.89-34.3 107.79-34.3ZM107.79-29.85L100.79-29.85 100.79-4.45 107.79-4.45Q112.24-4.45 114.67-7.23 117.09-10 117.09-15.4L117.09-15.4 117.09-18.9Q117.09-24.2 114.72-27.03 112.34-29.85 107.79-29.85L107.79-29.85Z" opacity="1" transform="matrix(1,0,0,1,0,0)" fill="#ffffff" class="wordmark-text-0" data-fill-palette-color="primary" id="text-0"></path></svg></g></svg></g><g transform="matrix(1,0,0,1,0,79.95010345357875)"><svg viewBox="0 0 224 24.265817023213472" height="24.265817023213472" width="224"><g transform="matrix(1,0,0,1,0,0)"><svg width="224" viewBox="4.349999904632568 -35.099998474121094 329.54998779296875 35.69999694824219" height="24.265817023213472" data-palette-color="#00d1cd"><path d="M30.1-32.2L29.8-9.6 29.95 0 24.4 0 9.3-24.05 8.95-24.05 8.9-10.75 9.05 0 4.35 0 4.6-9.5 4.4-32.1 9.85-32.1 25-8.05 25.4-8.05 25.3-31.85 30.1-32.2ZM38.1 0L38.3-9.65 38.15-22.7 43.15-23.15 42.95-10.1 43.1 0 38.1 0ZM40.7-33.8Q41.95-33.8 42.65-33.08 43.35-32.35 43.35-31.05L43.35-31.05Q43.35-29.7 42.6-28.9 41.85-28.1 40.55-28.1L40.55-28.1Q39.25-28.1 38.53-28.85 37.8-29.6 37.8-30.9L37.8-30.9Q37.8-32.2 38.58-33 39.35-33.8 40.7-33.8L40.7-33.8ZM59.3-23.5Q60.9-23.5 62.55-23.15 64.2-22.8 65.45-22.2L65.45-22.2 64.6-17.95 64.1-17.75Q61.45-19.3 59.2-19.3L59.2-19.3Q56.55-19.3 55.05-17.3 53.55-15.3 53.55-11.7L53.55-11.7Q53.55-7.85 55.1-5.73 56.65-3.6 59.5-3.6L59.5-3.6Q62-3.6 64.85-5.1L64.85-5.1 65.3-4.8 64.8-0.7Q61.75 0.45 58.7 0.45L58.7 0.45Q54 0.45 51.38-2.68 48.75-5.8 48.75-11.3L48.75-11.3Q48.75-17 51.55-20.25 54.35-23.5 59.3-23.5L59.3-23.5ZM87.25-11.9L86.7-11.3 72.65-11.25Q72.7-7.45 74.5-5.48 76.3-3.5 79.6-3.5L79.6-3.5Q83.05-3.5 86.35-5.55L86.35-5.55 86.85-5.25 86.1-1.15Q82.45 0.45 79 0.45L79 0.45Q73.85 0.45 70.93-2.73 68-5.9 68-11.4L68-11.4Q68-16.95 70.9-20.2 73.8-23.45 78.75-23.45L78.75-23.45Q82.95-23.45 85.23-21.15 87.5-18.85 87.5-14.65L87.5-14.65Q87.5-13.5 87.25-11.9L87.25-11.9ZM82.8-14.55L82.9-15.25Q82.9-17.6 81.83-18.8 80.75-20 78.7-20L78.7-20Q76.4-20 74.9-18.53 73.4-17.05 72.9-14.35L72.9-14.35 82.8-14.55ZM107.9-23.45Q110.9-23.45 113.75-22.3L113.75-22.3 113.05-18.3 112.4-18.15Q109.8-19.9 107.3-19.9L107.3-19.9Q105.8-19.9 104.93-19.1 104.05-18.3 104.05-17.15L104.05-17.15Q104.05-15.9 105.08-15.15 106.1-14.4 108.25-13.5L108.25-13.5Q110.2-12.65 111.43-11.9 112.65-11.15 113.53-9.9 114.4-8.65 114.4-6.8L114.4-6.8Q114.4-4.9 113.4-3.23 112.4-1.55 110.45-0.55 108.5 0.45 105.75 0.45L105.75 0.45Q102.3 0.45 98.75-1.1L98.75-1.1 99.35-5.35 99.9-5.7Q101.35-4.45 103.1-3.73 104.85-3 106.3-3L106.3-3Q107.9-3 108.88-3.88 109.85-4.75 109.85-5.95L109.85-5.95Q109.85-7.2 108.85-7.93 107.85-8.65 105.7-9.65L105.7-9.65Q103.75-10.5 102.5-11.25 101.25-12 100.38-13.3 99.5-14.6 99.5-16.5L99.5-16.5Q99.5-19.55 101.75-21.5 104-23.45 107.9-23.45L107.9-23.45ZM119.9 0L120.1-9.65 119.95-22.7 124.95-23.15 124.75-10.1 124.9 0 119.9 0ZM122.5-33.8Q123.75-33.8 124.45-33.08 125.15-32.35 125.15-31.05L125.15-31.05Q125.15-29.7 124.4-28.9 123.65-28.1 122.35-28.1L122.35-28.1Q121.05-28.1 120.33-28.85 119.6-29.6 119.6-30.9L119.6-30.9Q119.6-32.2 120.38-33 121.15-33.8 122.5-33.8L122.5-33.8ZM160.5 0L160.8-15.15Q160.85-17.05 159.92-18.13 159-19.2 157.25-19.2L157.25-19.2Q154.4-19.2 151.35-16.3L151.35-16.3 151.25-10.1 151.5 0 146.35 0 146.7-15.15Q146.75-17.05 145.82-18.13 144.9-19.2 143.15-19.2L143.15-19.2Q140.25-19.2 137.15-16.2L137.15-16.2 137.1-10.1 137.4 0 132.3 0 132.6-9.65 132.35-22.7 137.2-23.15 137.15-19.8 137.5-19.8Q140.45-22.4 143.65-23.35L143.65-23.35Q146.45-23.35 148.27-22.38 150.1-21.4 150.85-19.6L150.85-19.6 151.15-19.6Q154.2-22.25 157.75-23.35L157.75-23.35Q161.6-23.35 163.57-21.6 165.55-19.85 165.5-16.6L165.5-16.6 165.35-10.1 165.6 0 160.5 0ZM194.5 0L194.85-15.15Q194.9-17.05 193.97-18.13 193.05-19.2 191.3-19.2L191.3-19.2Q188.4-19.2 185.3-16.2L185.3-16.2 185.25-10.1 185.55 0 180.45 0 180.75-9.65 180.5-22.7 185.35-23.15 185.3-19.8 185.65-19.8Q188.6-22.4 191.8-23.35L191.8-23.35Q195.65-23.35 197.63-21.6 199.6-19.85 199.55-16.6L199.55-16.6 199.4-10.1 199.65 0 194.5 0ZM227.25-3.9L227.7-3.55 227.25-0.75Q225.6 0.2 224 0.35L224 0.35Q222.5 0.1 221.63-0.73 220.75-1.55 220.3-3.2L220.3-3.2 219.95-3.2Q217-0.55 213.95 0.3L213.95 0.3Q210.2 0.3 208.2-1.45 206.2-3.2 206.25-6.45L206.25-6.45 206.35-12.7 206.15-22.7 211.2-23.15 210.95-7.85Q210.9-6 211.78-4.95 212.65-3.9 214.4-3.9L214.4-3.9Q217.05-3.9 219.85-6.4L219.85-6.4 219.85-22.7 224.7-23.15 224.35-5.35Q224.35-4.45 224.65-4.08 224.95-3.7 225.7-3.7L225.7-3.7Q226.3-3.7 227.25-3.9L227.25-3.9ZM260.05 0L260.35-15.15Q260.4-17.05 259.48-18.13 258.55-19.2 256.8-19.2L256.8-19.2Q253.95-19.2 250.9-16.3L250.9-16.3 250.8-10.1 251.05 0 245.9 0 246.25-15.15Q246.3-17.05 245.38-18.13 244.45-19.2 242.7-19.2L242.7-19.2Q239.8-19.2 236.7-16.2L236.7-16.2 236.65-10.1 236.95 0 231.85 0 232.15-9.65 231.9-22.7 236.75-23.15 236.7-19.8 237.05-19.8Q240-22.4 243.2-23.35L243.2-23.35Q246-23.35 247.82-22.38 249.65-21.4 250.4-19.6L250.4-19.6 250.7-19.6Q253.75-22.25 257.3-23.35L257.3-23.35Q261.15-23.35 263.13-21.6 265.1-19.85 265.05-16.6L265.05-16.6 264.9-10.1 265.15 0 260.05 0ZM283.45-23.3Q287.8-23.3 290.1-20.4 292.4-17.5 292.4-12.25L292.4-12.25Q292.4-6.15 289.45-2.85 286.5 0.45 281.25 0.45L281.25 0.45Q278.7 0.45 276.15-0.7L276.15-0.7 272.95 0.6 272.2 0.1 272.55-9.6 272.25-34.7 277.35-35.1 277.15-19.85 277.45-19.85Q279-21.2 280.35-21.98 281.7-22.75 283.45-23.3L283.45-23.3ZM281.45-3.05Q284.35-3.05 286-5.13 287.65-7.2 287.65-11.4L287.65-11.4Q287.65-15.15 286.35-17.18 285.05-19.2 282.6-19.2L282.6-19.2Q279.95-19.2 277.1-16.2L277.1-16.2 277-10.2 277.15-4.4Q279.4-3.05 281.45-3.05L281.45-3.05ZM315.4-11.9L314.85-11.3 300.8-11.25Q300.85-7.45 302.65-5.48 304.45-3.5 307.75-3.5L307.75-3.5Q311.2-3.5 314.5-5.55L314.5-5.55 315-5.25 314.25-1.15Q310.6 0.45 307.15 0.45L307.15 0.45Q302 0.45 299.07-2.73 296.15-5.9 296.15-11.4L296.15-11.4Q296.15-16.95 299.05-20.2 301.95-23.45 306.9-23.45L306.9-23.45Q311.1-23.45 313.37-21.15 315.65-18.85 315.65-14.65L315.65-14.65Q315.65-13.5 315.4-11.9L315.4-11.9ZM310.95-14.55L311.05-15.25Q311.05-17.6 309.97-18.8 308.9-20 306.85-20L306.85-20Q304.55-20 303.05-18.53 301.55-17.05 301.05-14.35L301.05-14.35 310.95-14.55ZM332.65-23.1Q333.2-23.1 333.9-23L333.9-23 333.9-18.15 333.35-18Q332.55-18.25 331.5-18.25L331.5-18.25Q329.95-18.25 328.6-17.1 327.25-15.95 326-13.4L326-13.4 325.95-10.1 326.25 0 321.15 0 321.5-9.65 321.2-22.7 326.05-23.15 326-18.55 326.35-18.55Q327.7-20.95 329.35-22.03 331-23.1 332.65-23.1L332.65-23.1Z" opacity="1" transform="matrix(1,0,0,1,0,0)" fill="#00d1cd" class="slogan-text-1" data-fill-palette-color="secondary" id="text-1"></path></svg></g></svg></g></svg></g></svg></g><g></g></svg></g></svg></g></svg></g></svg></g><defs></defs></svg><rect width="320" height="360" fill="none" stroke="none" visibility="hidden"></rect></g></svg></g></svg>