<?xml version="1.0" standalone="no"?>
<!DOCTYPE svg PUBLIC "-//W3C//DTD SVG 20010904//EN"
 "http://www.w3.org/TR/2001/REC-SVG-20010904/DTD/svg10.dtd">
<svg version="1.0" xmlns="http://www.w3.org/2000/svg"
 width="2000.000000pt" height="1500.000000pt" viewBox="0 0 2000.000000 1500.000000"
 preserveAspectRatio="xMidYMid meet">

<g transform="translate(0.000000,1500.000000) scale(0.100000,-0.100000)"
fill="#000000" stroke="none">
<path d="M0 7500 l0 -7500 10000 0 10000 0 0 7500 0 7500 -10000 0 -10000 0 0
-7500z m10780 4656 c460 -48 861 -127 1249 -246 217 -67 601 -214 601 -230 0
-9 -321 -903 -326 -909 -2 -2 -70 22 -151 54 -542 213 -1071 342 -1628 396
-195 19 -651 17 -805 -5 -474 -65 -798 -206 -1050 -456 -257 -256 -363 -578
-339 -1024 9 -153 28 -272 64 -392 14 -45 25 -87 25 -93 0 -8 -155 -11 -549
-11 -515 0 -550 1 -555 18 -10 30 -35 194 -47 302 -18 159 -15 501 5 650 61
454 234 819 536 1133 195 203 402 355 660 487 364 184 725 284 1223 335 182
19 871 13 1087 -9z m-2520 -4326 l0 -1020 -89 0 -89 0 -12 88 c-7 48 -14 90
-17 94 -2 4 -32 -21 -66 -56 -103 -105 -232 -156 -397 -156 -283 0 -480 155
-560 440 -43 156 -45 420 -4 588 25 103 86 223 149 291 109 117 207 160 385
168 186 9 300 -30 421 -145 38 -36 71 -63 73 -61 1 2 -1 42 -5 89 -4 47 -8
223 -8 393 l-1 307 110 0 110 0 0 -1020z m-4192 930 c43 -27 66 -80 59 -143
-5 -59 -32 -97 -80 -116 -112 -42 -206 65 -166 191 26 79 115 112 187 68z
m10006 -15 c177 -31 307 -135 395 -316 95 -196 126 -385 118 -724 -5 -227 -18
-335 -58 -470 -87 -294 -288 -455 -569 -455 -341 0 -546 223 -616 668 -24 148
-23 505 0 655 44 278 137 467 278 560 128 84 284 112 452 82z m-1484 -975 l0
-960 -105 0 -106 0 3 840 c2 462 0 840 -3 840 -4 0 -13 -7 -20 -16 -21 -26
-336 -284 -346 -284 -9 1 -108 130 -108 142 0 5 113 96 250 202 l250 195 93 0
92 1 0 -960z m-9349 485 c87 -15 237 -60 253 -75 5 -5 -6 -44 -29 -93 l-37
-85 -87 29 c-365 124 -668 39 -611 -172 21 -79 89 -125 305 -209 261 -101 375
-164 430 -236 44 -57 66 -129 67 -210 0 -93 -7 -126 -45 -197 -36 -69 -89
-117 -172 -157 -108 -53 -172 -65 -360 -65 -184 0 -279 15 -382 61 l-53 23 0
101 0 100 38 -16 c151 -66 323 -100 466 -91 142 8 232 48 277 121 23 38 26
134 5 175 -35 66 -127 122 -351 211 -196 78 -281 125 -345 189 -68 67 -92 128
-92 231 0 96 24 159 84 225 58 64 158 118 258 139 86 19 277 20 381 1z m2137
0 c118 -28 218 -99 263 -187 23 -45 31 -47 50 -12 22 42 121 127 181 156 79
39 168 58 273 58 153 0 257 -34 342 -113 59 -54 89 -107 113 -202 19 -73 20
-111 20 -612 l0 -533 -104 0 -105 0 -3 518 c-4 570 -4 573 -68 661 -57 78
-186 115 -320 91 -166 -30 -256 -115 -295 -282 -12 -51 -15 -153 -15 -525 l0
-463 -110 0 -110 0 0 483 c0 508 -5 578 -44 656 -49 96 -125 135 -261 135
-224 0 -336 -96 -379 -323 -13 -68 -16 -164 -16 -517 l0 -434 -110 0 -110 0 0
720 0 720 89 0 89 0 17 -100 c10 -55 21 -100 24 -100 3 1 21 21 39 46 54 73
143 130 252 160 63 17 223 17 298 -1z m4050 0 c105 -25 170 -62 250 -141 125
-125 182 -285 182 -515 l0 -109 -495 0 -495 0 0 -34 c0 -65 30 -191 60 -253
59 -119 167 -198 305 -224 122 -23 356 8 506 66 l59 24 0 -99 0 -98 -82 -30
c-135 -48 -189 -57 -368 -57 -186 1 -245 12 -362 71 -85 43 -191 142 -241 225
-138 233 -138 638 1 889 43 79 157 195 229 233 117 62 312 85 451 52z m1631 0
c281 -67 441 -333 441 -735 0 -111 -24 -263 -54 -351 -45 -130 -124 -235 -229
-304 -208 -136 -553 -103 -716 70 -29 30 -53 55 -54 55 -1 0 0 -187 2 -415 l3
-415 -111 0 -111 0 2 1043 3 1042 87 3 86 3 12 -73 c23 -149 21 -146 60 -93
30 42 108 104 168 134 98 49 284 66 411 36z m4591 -9 c36 -9 97 -28 137 -42
l71 -25 -30 -67 c-16 -37 -34 -77 -38 -89 l-9 -22 -85 29 c-259 88 -503 75
-589 -32 -25 -31 -30 -46 -30 -92 0 -110 61 -158 346 -270 293 -116 372 -168
429 -283 30 -61 32 -74 32 -157 -1 -160 -65 -268 -201 -338 -117 -61 -183 -73
-388 -72 -189 1 -271 15 -380 63 l-45 20 0 100 c0 56 2 101 4 101 2 0 30 -12
62 -26 200 -88 476 -108 619 -45 61 27 102 76 116 135 31 140 -50 212 -388
347 -234 93 -332 159 -384 259 -21 39 -24 59 -24 150 0 94 3 110 27 155 53
101 172 180 314 210 89 19 342 13 434 -9z m1353 5 c121 -32 183 -66 273 -156
148 -146 206 -308 205 -574 0 -259 -67 -442 -209 -578 -178 -171 -506 -213
-752 -96 -142 68 -265 220 -318 393 -48 157 -52 369 -11 540 58 246 231 425
460 474 97 22 261 20 352 -3z m-12895 -723 l2 -718 -110 0 -110 0 0 720 0 721
108 -3 107 -3 3 -717z m8739 -1825 c13 -112 10 -606 -5 -708 -81 -538 -276
-947 -615 -1286 -488 -490 -1150 -766 -2067 -861 -169 -18 -1034 -17 -1260 0
-712 56 -1285 178 -1682 359 l-78 36 0 509 c0 404 3 509 13 505 6 -3 59 -24
117 -47 1000 -400 2320 -559 3190 -384 408 82 710 228 940 454 113 112 179
201 245 335 98 199 134 349 142 600 6 185 -5 325 -38 463 -10 46 -19 85 -19
88 0 2 249 4 554 4 l554 0 9 -67z"/>
<path d="M7491 8069 c-116 -37 -208 -154 -248 -318 -24 -94 -24 -370 0 -464
62 -246 223 -356 467 -318 94 15 147 38 204 91 90 83 126 211 126 443 0 312
-64 474 -215 543 -104 48 -228 56 -334 23z"/>
<path d="M13859 8556 c-101 -27 -167 -83 -219 -187 -66 -130 -93 -307 -93
-604 1 -461 76 -683 262 -769 38 -17 65 -21 151 -21 95 0 110 3 155 27 129 68
197 196 237 443 20 127 16 555 -6 680 -48 267 -131 388 -293 430 -68 18 -131
18 -194 1z"/>
<path d="M9160 8075 c-151 -42 -257 -182 -277 -362 l-6 -53 371 0 c235 0 373
4 377 10 10 16 -13 153 -35 213 -28 73 -88 140 -156 172 -71 34 -193 42 -274
20z"/>
<path d="M10770 8079 c-30 -5 -84 -24 -120 -42 -150 -74 -211 -250 -196 -567
10 -215 47 -332 132 -410 56 -52 109 -76 199 -90 142 -23 275 16 351 103 51
59 102 169 119 261 19 100 19 292 0 392 -38 197 -149 324 -309 353 -68 12 -98
12 -176 0z"/>
<path d="M16730 8079 c-162 -27 -266 -132 -317 -319 -26 -93 -25 -377 1 -469
37 -134 114 -239 210 -286 165 -80 396 -43 507 83 89 102 123 222 123 442 0
216 -31 328 -124 432 -50 58 -140 104 -230 118 -74 11 -94 11 -170 -1z"/>
</g>
</svg>
